<?xml version="1.0" encoding="UTF-8" ?>
<svg version="1.1" width="600" height="600" xmlns="http://www.w3.org/2000/svg" shape-rendering="crispEdges">
<rect x="285" y="220" width="5" height="5" fill="#AB3B1E" />
<rect x="335" y="220" width="10" height="5" fill="#AB3B1E" />
<rect x="285" y="225" width="5" height="10" fill="#C8AC93" />
<rect x="290" y="225" width="5" height="5" fill="#AB3B1E" />
<rect x="330" y="225" width="5" height="10" fill="#AB3B1E" />
<rect x="335" y="225" width="10" height="5" fill="#C8AC93" />
<rect x="290" y="230" width="5" height="15" fill="#C8AC93" />
<rect x="295" y="230" width="5" height="5" fill="#AB3B1E" />
<rect x="335" y="230" width="5" height="5" fill="#C8AC93" />
<rect x="295" y="235" width="5" height="5" fill="#C8AC93" />
<rect x="300" y="235" width="5" height="5" fill="#552804" />
<rect x="305" y="235" width="25" height="30" fill="#AB3B1E" />
<rect x="330" y="235" width="5" height="5" fill="#C8AC93" />
<rect x="335" y="235" width="5" height="10" fill="#552804" />
<rect x="295" y="240" width="5" height="5" fill="#552804" />
<rect x="300" y="240" width="5" height="40" fill="#AB3B1E" />
<rect x="330" y="240" width="5" height="5" fill="#552804" />
<rect x="290" y="245" width="10" height="20" fill="#AB3B1E" />
<rect x="330" y="245" width="10" height="25" fill="#AB3B1E" />
<rect x="285" y="250" width="5" height="35" fill="#AB3B1E" />
<rect x="340" y="260" width="5" height="20" fill="#AB3B1E" />
<rect x="290" y="265" width="5" height="5" fill="#AB3B1E" />
<rect x="295" y="265" width="5" height="5" fill="#0A0D11" />
<rect x="305" y="265" width="15" height="15" fill="#AB3B1E" />
<rect x="320" y="265" width="5" height="5" fill="#0A0D11" />
<rect x="325" y="265" width="5" height="5" fill="#AB3B1E" />
<rect x="290" y="270" width="5" height="5" fill="#B1743D" />
<rect x="295" y="270" width="5" height="5" fill="#AB3B1E" />
<rect x="320" y="270" width="5" height="5" fill="#AB3B1E" />
<rect x="325" y="270" width="10" height="5" fill="#B1743D" />
<rect x="335" y="270" width="5" height="5" fill="#AB3B1E" />
<rect x="290" y="275" width="5" height="10" fill="#C8AC93" />
<rect x="295" y="275" width="5" height="5" fill="#B1743D" />
<rect x="320" y="275" width="5" height="5" fill="#B1743D" />
<rect x="325" y="275" width="15" height="40" fill="#C8AC93" />
<rect x="295" y="280" width="5" height="5" fill="#C8AC93" />
<rect x="300" y="280" width="5" height="5" fill="#B1743D" />
<rect x="305" y="280" width="5" height="5" fill="#0A0D11" />
<rect x="310" y="280" width="5" height="5" fill="#AB3B1E" />
<rect x="315" y="280" width="5" height="5" fill="#B1743D" />
<rect x="320" y="280" width="5" height="75" fill="#C8AC93" />
<rect x="340" y="280" width="5" height="20" fill="#C8AC93" />
<rect x="280" y="285" width="5" height="5" fill="#AB3B1E" />
<rect x="285" y="285" width="5" height="15" fill="#552804" />
<rect x="290" y="285" width="5" height="10" fill="#AB3B1E" />
<rect x="295" y="285" width="5" height="5" fill="#B1743D" />
<rect x="300" y="285" width="20" height="10" fill="#C8AC93" />
<rect x="275" y="290" width="5" height="35" fill="#AB3B1E" />
<rect x="280" y="290" width="5" height="5" fill="#552804" />
<rect x="295" y="290" width="5" height="10" fill="#AB3B1E" />
<rect x="280" y="295" width="5" height="55" fill="#AB3B1E" />
<rect x="290" y="295" width="5" height="5" fill="#552804" />
<rect x="300" y="295" width="5" height="10" fill="#AB3B1E" />
<rect x="305" y="295" width="15" height="5" fill="#C8AC93" />
<rect x="270" y="300" width="5" height="30" fill="#AB3B1E" />
<rect x="285" y="300" width="10" height="55" fill="#AB3B1E" />
<rect x="295" y="300" width="5" height="5" fill="#552804" />
<rect x="305" y="300" width="5" height="5" fill="#B1743D" />
<rect x="310" y="300" width="10" height="5" fill="#C8AC93" />
<rect x="340" y="300" width="5" height="15" fill="#AB3B1E" />
<rect x="265" y="305" width="5" height="30" fill="#AB3B1E" />
<rect x="295" y="305" width="5" height="20" fill="#AB3B1E" />
<rect x="300" y="305" width="5" height="5" fill="#552804" />
<rect x="305" y="305" width="5" height="10" fill="#AB3B1E" />
<rect x="310" y="305" width="5" height="10" fill="#B1743D" />
<rect x="315" y="305" width="5" height="50" fill="#C8AC93" />
<rect x="300" y="310" width="5" height="10" fill="#AB3B1E" />
<rect x="260" y="315" width="5" height="25" fill="#AB3B1E" />
<rect x="305" y="315" width="5" height="5" fill="#B1743D" />
<rect x="310" y="315" width="5" height="55" fill="#C8AC93" />
<rect x="325" y="315" width="10" height="15" fill="#C8AC93" />
<rect x="335" y="315" width="5" height="15" fill="#AB3B1E" />
<rect x="300" y="320" width="5" height="5" fill="#B1743D" />
<rect x="305" y="320" width="5" height="40" fill="#C8AC93" />
<rect x="255" y="325" width="5" height="35" fill="#AB3B1E" />
<rect x="275" y="325" width="5" height="20" fill="#552804" />
<rect x="295" y="325" width="5" height="30" fill="#B1743D" />
<rect x="300" y="325" width="5" height="30" fill="#C8AC93" />
<rect x="270" y="330" width="5" height="25" fill="#552804" />
<rect x="325" y="330" width="5" height="5" fill="#C8AC93" />
<rect x="330" y="330" width="5" height="20" fill="#AB3B1E" />
<rect x="265" y="335" width="5" height="20" fill="#552804" />
<rect x="325" y="335" width="5" height="10" fill="#B1743D" />
<rect x="250" y="340" width="5" height="15" fill="#AB3B1E" />
<rect x="260" y="340" width="5" height="5" fill="#552804" />
<rect x="245" y="345" width="5" height="15" fill="#AB3B1E" />
<rect x="260" y="345" width="5" height="15" fill="#AB3B1E" />
<rect x="275" y="345" width="5" height="20" fill="#C8AC93" />
<rect x="325" y="345" width="5" height="10" fill="#AB3B1E" />
<rect x="280" y="350" width="5" height="20" fill="#C8AC93" />
<rect x="250" y="355" width="5" height="5" fill="#552804" />
<rect x="265" y="355" width="10" height="10" fill="#AB3B1E" />
<rect x="285" y="355" width="5" height="20" fill="#C8AC93" />
<rect x="290" y="355" width="10" height="5" fill="#AB3B1E" />
<rect x="300" y="355" width="5" height="5" fill="#B1743D" />
<rect x="315" y="355" width="5" height="15" fill="#B1743D" />
<rect x="320" y="355" width="5" height="15" fill="#AB3B1E" />
<rect x="240" y="360" width="10" height="5" fill="#552804" />
<rect x="250" y="360" width="5" height="30" fill="#AB3B1E" />
<rect x="255" y="360" width="10" height="5" fill="#552804" />
<rect x="290" y="360" width="5" height="10" fill="#C8AC93" />
<rect x="295" y="360" width="10" height="10" fill="#AB3B1E" />
<rect x="305" y="360" width="5" height="5" fill="#B1743D" />
<rect x="235" y="365" width="5" height="20" fill="#552804" />
<rect x="240" y="365" width="10" height="20" fill="#AB3B1E" />
<rect x="255" y="365" width="10" height="30" fill="#AB3B1E" />
<rect x="265" y="365" width="15" height="5" fill="#552804" />
<rect x="305" y="365" width="5" height="10" fill="#AB3B1E" />
<rect x="265" y="370" width="10" height="25" fill="#AB3B1E" />
<rect x="275" y="370" width="5" height="5" fill="#552804" />
<rect x="280" y="370" width="5" height="5" fill="#B1743D" />
<rect x="290" y="370" width="10" height="5" fill="#AB3B1E" />
<rect x="300" y="370" width="5" height="15" fill="#0A0D11" />
<rect x="310" y="370" width="10" height="5" fill="#AB3B1E" />
<rect x="320" y="370" width="5" height="30" fill="#0A0D11" />
<rect x="275" y="375" width="5" height="30" fill="#C8AC93" />
<rect x="280" y="375" width="5" height="5" fill="#AB3B1E" />
<rect x="285" y="375" width="10" height="5" fill="#B1743D" />
<rect x="295" y="375" width="5" height="5" fill="#AB3B1E" />
<rect x="305" y="375" width="5" height="15" fill="#0A0D11" />
<rect x="310" y="375" width="5" height="15" fill="#AB3B1E" />
<rect x="315" y="375" width="5" height="20" fill="#0A0D11" />
<rect x="280" y="380" width="10" height="25" fill="#C8AC93" />
<rect x="290" y="380" width="10" height="5" fill="#B1743D" />
<rect x="240" y="385" width="5" height="5" fill="#552804" />
<rect x="245" y="385" width="5" height="5" fill="#AB3B1E" />
<rect x="290" y="385" width="5" height="20" fill="#C8AC93" />
<rect x="295" y="385" width="10" height="5" fill="#B1743D" />
<rect x="250" y="390" width="5" height="5" fill="#552804" />
<rect x="295" y="390" width="10" height="15" fill="#C8AC93" />
<rect x="305" y="390" width="5" height="5" fill="#B1743D" />
<rect x="310" y="390" width="5" height="20" fill="#C8AC93" />
<rect x="255" y="395" width="5" height="5" fill="#552804" />
<rect x="260" y="395" width="10" height="5" fill="#AB3B1E" />
<rect x="270" y="395" width="5" height="5" fill="#C8AC93" />
<rect x="305" y="395" width="5" height="15" fill="#C8AC93" />
<rect x="315" y="395" width="5" height="15" fill="#C8AC93" />
<rect x="270" y="400" width="5" height="5" fill="#B1743D" />
<rect x="320" y="400" width="5" height="10" fill="#C8AC93" />
<rect x="275" y="405" width="30" height="5" fill="#B1743D" />
<rect x="325" y="405" width="5" height="5" fill="#C8AC93" />
</svg>