<?xml version="1.0" encoding="UTF-8" ?>
<svg version="1.1" width="1200" height="1200" xmlns="http://www.w3.org/2000/svg" shape-rendering="crispEdges">
<rect x="570" y="440" width="10" height="10" fill="#AB3B1E" />
<rect x="670" y="440" width="20" height="10" fill="#AB3B1E" />
<rect x="570" y="450" width="10" height="20" fill="#C8AC93" />
<rect x="580" y="450" width="10" height="10" fill="#AB3B1E" />
<rect x="660" y="450" width="10" height="20" fill="#AB3B1E" />
<rect x="670" y="450" width="20" height="10" fill="#C8AC93" />
<rect x="580" y="460" width="10" height="30" fill="#C8AC93" />
<rect x="590" y="460" width="10" height="10" fill="#AB3B1E" />
<rect x="670" y="460" width="10" height="10" fill="#C8AC93" />
<rect x="590" y="470" width="10" height="10" fill="#C8AC93" />
<rect x="600" y="470" width="10" height="10" fill="#552804" />
<rect x="610" y="470" width="50" height="60" fill="#AB3B1E" />
<rect x="660" y="470" width="10" height="10" fill="#C8AC93" />
<rect x="670" y="470" width="10" height="20" fill="#552804" />
<rect x="590" y="480" width="10" height="10" fill="#552804" />
<rect x="600" y="480" width="10" height="80" fill="#AB3B1E" />
<rect x="660" y="480" width="10" height="10" fill="#552804" />
<rect x="580" y="490" width="20" height="40" fill="#AB3B1E" />
<rect x="660" y="490" width="20" height="50" fill="#AB3B1E" />
<rect x="570" y="500" width="10" height="70" fill="#AB3B1E" />
<rect x="680" y="520" width="10" height="40" fill="#AB3B1E" />
<rect x="580" y="530" width="10" height="10" fill="#AB3B1E" />
<rect x="590" y="530" width="10" height="10" fill="#0A0D11" />
<rect x="610" y="530" width="30" height="30" fill="#AB3B1E" />
<rect x="640" y="530" width="10" height="10" fill="#0A0D11" />
<rect x="650" y="530" width="10" height="10" fill="#AB3B1E" />
<rect x="580" y="540" width="10" height="10" fill="#B1743D" />
<rect x="590" y="540" width="10" height="10" fill="#AB3B1E" />
<rect x="640" y="540" width="10" height="10" fill="#AB3B1E" />
<rect x="650" y="540" width="20" height="10" fill="#B1743D" />
<rect x="670" y="540" width="10" height="10" fill="#AB3B1E" />
<rect x="580" y="550" width="10" height="20" fill="#C8AC93" />
<rect x="590" y="550" width="10" height="10" fill="#B1743D" />
<rect x="640" y="550" width="10" height="10" fill="#B1743D" />
<rect x="650" y="550" width="30" height="80" fill="#C8AC93" />
<rect x="590" y="560" width="10" height="10" fill="#C8AC93" />
<rect x="600" y="560" width="10" height="10" fill="#B1743D" />
<rect x="610" y="560" width="10" height="10" fill="#0A0D11" />
<rect x="620" y="560" width="10" height="10" fill="#AB3B1E" />
<rect x="630" y="560" width="10" height="10" fill="#B1743D" />
<rect x="640" y="560" width="10" height="150" fill="#C8AC93" />
<rect x="680" y="560" width="10" height="40" fill="#C8AC93" />
<rect x="560" y="570" width="10" height="10" fill="#AB3B1E" />
<rect x="570" y="570" width="10" height="30" fill="#552804" />
<rect x="580" y="570" width="10" height="20" fill="#AB3B1E" />
<rect x="590" y="570" width="10" height="10" fill="#B1743D" />
<rect x="600" y="570" width="40" height="20" fill="#C8AC93" />
<rect x="550" y="580" width="10" height="70" fill="#AB3B1E" />
<rect x="560" y="580" width="10" height="10" fill="#552804" />
<rect x="590" y="580" width="10" height="20" fill="#AB3B1E" />
<rect x="560" y="590" width="10" height="110" fill="#AB3B1E" />
<rect x="580" y="590" width="10" height="10" fill="#552804" />
<rect x="600" y="590" width="10" height="20" fill="#AB3B1E" />
<rect x="610" y="590" width="30" height="10" fill="#C8AC93" />
<rect x="540" y="600" width="10" height="60" fill="#AB3B1E" />
<rect x="570" y="600" width="20" height="110" fill="#AB3B1E" />
<rect x="590" y="600" width="10" height="10" fill="#552804" />
<rect x="610" y="600" width="10" height="10" fill="#B1743D" />
<rect x="620" y="600" width="20" height="10" fill="#C8AC93" />
<rect x="680" y="600" width="10" height="30" fill="#AB3B1E" />
<rect x="530" y="610" width="10" height="60" fill="#AB3B1E" />
<rect x="590" y="610" width="10" height="40" fill="#AB3B1E" />
<rect x="600" y="610" width="10" height="10" fill="#552804" />
<rect x="610" y="610" width="10" height="20" fill="#AB3B1E" />
<rect x="620" y="610" width="10" height="20" fill="#B1743D" />
<rect x="630" y="610" width="10" height="100" fill="#C8AC93" />
<rect x="600" y="620" width="10" height="20" fill="#AB3B1E" />
<rect x="520" y="630" width="10" height="50" fill="#AB3B1E" />
<rect x="610" y="630" width="10" height="10" fill="#B1743D" />
<rect x="620" y="630" width="10" height="110" fill="#C8AC93" />
<rect x="650" y="630" width="20" height="30" fill="#C8AC93" />
<rect x="670" y="630" width="10" height="30" fill="#AB3B1E" />
<rect x="600" y="640" width="10" height="10" fill="#B1743D" />
<rect x="610" y="640" width="10" height="80" fill="#C8AC93" />
<rect x="510" y="650" width="10" height="70" fill="#AB3B1E" />
<rect x="550" y="650" width="10" height="40" fill="#552804" />
<rect x="590" y="650" width="10" height="60" fill="#B1743D" />
<rect x="600" y="650" width="10" height="60" fill="#C8AC93" />
<rect x="540" y="660" width="10" height="50" fill="#552804" />
<rect x="650" y="660" width="10" height="10" fill="#C8AC93" />
<rect x="660" y="660" width="10" height="40" fill="#AB3B1E" />
<rect x="530" y="670" width="10" height="40" fill="#552804" />
<rect x="650" y="670" width="10" height="20" fill="#B1743D" />
<rect x="500" y="680" width="10" height="30" fill="#AB3B1E" />
<rect x="520" y="680" width="10" height="10" fill="#552804" />
<rect x="490" y="690" width="10" height="30" fill="#AB3B1E" />
<rect x="520" y="690" width="10" height="30" fill="#AB3B1E" />
<rect x="550" y="690" width="10" height="40" fill="#C8AC93" />
<rect x="650" y="690" width="10" height="20" fill="#AB3B1E" />
<rect x="560" y="700" width="10" height="40" fill="#C8AC93" />
<rect x="500" y="710" width="10" height="10" fill="#552804" />
<rect x="530" y="710" width="20" height="20" fill="#AB3B1E" />
<rect x="570" y="710" width="10" height="40" fill="#C8AC93" />
<rect x="580" y="710" width="20" height="10" fill="#AB3B1E" />
<rect x="600" y="710" width="10" height="10" fill="#B1743D" />
<rect x="630" y="710" width="10" height="30" fill="#B1743D" />
<rect x="640" y="710" width="10" height="30" fill="#AB3B1E" />
<rect x="480" y="720" width="20" height="10" fill="#552804" />
<rect x="500" y="720" width="10" height="60" fill="#AB3B1E" />
<rect x="510" y="720" width="20" height="10" fill="#552804" />
<rect x="580" y="720" width="10" height="20" fill="#C8AC93" />
<rect x="590" y="720" width="20" height="20" fill="#AB3B1E" />
<rect x="610" y="720" width="10" height="10" fill="#B1743D" />
<rect x="470" y="730" width="10" height="40" fill="#552804" />
<rect x="480" y="730" width="20" height="40" fill="#AB3B1E" />
<rect x="510" y="730" width="20" height="60" fill="#AB3B1E" />
<rect x="530" y="730" width="30" height="10" fill="#552804" />
<rect x="610" y="730" width="10" height="20" fill="#AB3B1E" />
<rect x="530" y="740" width="20" height="50" fill="#AB3B1E" />
<rect x="550" y="740" width="10" height="10" fill="#552804" />
<rect x="560" y="740" width="10" height="10" fill="#B1743D" />
<rect x="580" y="740" width="20" height="10" fill="#AB3B1E" />
<rect x="600" y="740" width="10" height="30" fill="#0A0D11" />
<rect x="620" y="740" width="20" height="10" fill="#AB3B1E" />
<rect x="640" y="740" width="10" height="60" fill="#0A0D11" />
<rect x="550" y="750" width="10" height="60" fill="#C8AC93" />
<rect x="560" y="750" width="10" height="10" fill="#AB3B1E" />
<rect x="570" y="750" width="20" height="10" fill="#B1743D" />
<rect x="590" y="750" width="10" height="10" fill="#AB3B1E" />
<rect x="610" y="750" width="10" height="30" fill="#0A0D11" />
<rect x="620" y="750" width="10" height="30" fill="#AB3B1E" />
<rect x="630" y="750" width="10" height="40" fill="#0A0D11" />
<rect x="560" y="760" width="20" height="50" fill="#C8AC93" />
<rect x="580" y="760" width="20" height="10" fill="#B1743D" />
<rect x="480" y="770" width="10" height="10" fill="#552804" />
<rect x="490" y="770" width="10" height="10" fill="#AB3B1E" />
<rect x="580" y="770" width="10" height="40" fill="#C8AC93" />
<rect x="590" y="770" width="20" height="10" fill="#B1743D" />
<rect x="500" y="780" width="10" height="10" fill="#552804" />
<rect x="590" y="780" width="20" height="30" fill="#C8AC93" />
<rect x="610" y="780" width="10" height="10" fill="#B1743D" />
<rect x="620" y="780" width="10" height="40" fill="#C8AC93" />
<rect x="510" y="790" width="10" height="10" fill="#552804" />
<rect x="520" y="790" width="20" height="10" fill="#AB3B1E" />
<rect x="540" y="790" width="10" height="10" fill="#C8AC93" />
<rect x="610" y="790" width="10" height="30" fill="#C8AC93" />
<rect x="630" y="790" width="10" height="30" fill="#C8AC93" />
<rect x="540" y="800" width="10" height="10" fill="#B1743D" />
<rect x="640" y="800" width="10" height="20" fill="#C8AC93" />
<rect x="550" y="810" width="60" height="10" fill="#B1743D" />
<rect x="650" y="810" width="10" height="10" fill="#C8AC93" />
</svg>